<svg xmlns="http://www.w3.org/2000/svg" width="49.373" height="44.748" viewBox="0 0 49.373 44.748">
  <g id="Burger_icon" data-name="Burger icon" transform="translate(0)">
    <path id="Path_15" data-name="Path 15" d="M49.373,20.992v-.579a3.518,3.518,0,0,0-1.716-2.963,3.287,3.287,0,0,0,.651-.631,2.887,2.887,0,0,0,.431-2.841,18.592,18.592,0,0,0-6.547-8.346C37.827,2.492,31.941.852,24.7.756h-.021a39.6,39.6,0,0,0-9.014,1.082.653.653,0,0,0-.506.808.734.734,0,0,0,.889.46,38.014,38.014,0,0,1,8.642-1.035c15.643.21,20.931,7.824,22.69,12.346a1.649,1.649,0,0,1-.249,1.643,2.007,2.007,0,0,1-1.6.755H3.85a2.019,2.019,0,0,1-1.613-.759,1.621,1.621,0,0,1-.25-1.612C3.269,11.13,6.214,6.64,12.962,4.068a.637.637,0,0,0,.387-.86.751.751,0,0,0-.946-.352A21.249,21.249,0,0,0,4.231,8.235,18.154,18.154,0,0,0,.622,14.007a2.822,2.822,0,0,0,.434,2.808,3.252,3.252,0,0,0,.661.634A3.518,3.518,0,0,0,0,20.413v.579a3.709,3.709,0,0,0,3.16,3.525l-.014,3.925A3.706,3.706,0,0,0,0,31.963v.579a3.708,3.708,0,0,0,3.157,3.524,7.711,7.711,0,0,0,.415,3.063C4.755,42.5,7.957,44.1,10.436,44.851a15.613,15.613,0,0,0,4.537.654H34.4a15.612,15.612,0,0,0,4.536-.654C41.416,44.1,44.619,42.5,45.8,39.13a7.711,7.711,0,0,0,.415-3.063,3.708,3.708,0,0,0,3.157-3.524v-.579a3.707,3.707,0,0,0-3.16-3.523V24.517a3.708,3.708,0,0,0,3.16-3.525ZM1.446,32.542v-.579A2.315,2.315,0,0,1,3.14,29.806v.387a2.36,2.36,0,0,0,1.5,2.158,2.831,2.831,0,0,0,2.805-.318A2.48,2.48,0,0,1,9.066,31.5c.083,0,.162,0,.238.007v3.323H3.959a2.409,2.409,0,0,1-2.513-2.284ZM30.259,27.4H44.767v2.792a1.046,1.046,0,0,1-.674.969,1.264,1.264,0,0,1-1.269-.145,3.981,3.981,0,0,0-2.538-.837,4.641,4.641,0,0,0-3.051,1.079,3.314,3.314,0,0,1-4.306,0,4.641,4.641,0,0,0-3.051-1.079,4.7,4.7,0,0,0-3.051,1.079,3.313,3.313,0,0,1-4.305,0,4.7,4.7,0,0,0-3.051-1.079,4.641,4.641,0,0,0-3.051,1.079,3.636,3.636,0,0,1-1.374.713v-3.7a.918.918,0,0,1,.958-.871H26.869a.66.66,0,1,0,0-1.315H16.006a2.305,2.305,0,0,0-2.4,2.185v8.094a1.433,1.433,0,0,1-2.852,0V28.272a2.305,2.305,0,0,0-2.4-2.185H4.606v-1.5H44.767v1.5H30.259a.66.66,0,1,0,0,1.315Zm-21.914,0a.919.919,0,0,1,.958.871v1.915c-.077,0-.156-.006-.238-.006a3.98,3.98,0,0,0-2.537.836,1.265,1.265,0,0,1-1.269.145,1.046,1.046,0,0,1-.674-.969V27.4ZM44.424,38.73c-.8,2.281-2.8,3.92-5.944,4.874a14.035,14.035,0,0,1-4.079.586H14.972a14.034,14.034,0,0,1-4.079-.586c-6.157-1.868-6.415-5.995-6.3-7.463H9.3v.225a2.754,2.754,0,0,0,2.872,2.611,2.754,2.754,0,0,0,2.872-2.611v-.225H44.774A6.491,6.491,0,0,1,44.424,38.73Zm3.5-6.767v.579a2.409,2.409,0,0,1-2.513,2.284H15.048V33.314a4.777,4.777,0,0,0,2.272-1.024,3.313,3.313,0,0,1,4.305,0,4.7,4.7,0,0,0,3.051,1.079,4.641,4.641,0,0,0,3.051-1.079,3.313,3.313,0,0,1,4.306,0,4.853,4.853,0,0,0,6.1,0,3.186,3.186,0,0,1,2.153-.795,2.48,2.48,0,0,1,1.62.538,2.831,2.831,0,0,0,2.805.318,2.36,2.36,0,0,0,1.5-2.158v-.4A2.318,2.318,0,0,1,47.927,31.963Zm-2.513-8.687H3.959a2.409,2.409,0,0,1-2.513-2.284v-.579a2.409,2.409,0,0,1,2.513-2.284H45.414a2.409,2.409,0,0,1,2.513,2.284v.579A2.409,2.409,0,0,1,45.415,23.276Z" transform="translate(0 -0.756)" fill="#fff"/>
  </g>
</svg>
