<svg xmlns="http://www.w3.org/2000/svg" width="41.818" height="48.91" viewBox="0 0 41.818 48.91">
  <g id="cupcake" transform="translate(0)">
    <g id="Group_52" data-name="Group 52" transform="translate(0 0)">
      <g id="Group_51" data-name="Group 51">
        <path id="Path_29" data-name="Path 29" d="M69.348,24.474a4.929,4.929,0,0,0-.317-6.9A4.78,4.78,0,0,0,65.778,16.3H63.735a4.93,4.93,0,0,0-.354-6.9,4.78,4.78,0,0,0-3.233-1.256h-.055a6.471,6.471,0,0,0-6.378-5.706h-1.1a1.289,1.289,0,0,1-1.287-.978,1.267,1.267,0,0,1,0-.489A.832.832,0,0,0,51.141.3.843.843,0,0,0,50.5,0a4.756,4.756,0,0,0-4.57,3.283,5,5,0,0,0,.666,4.483,4.845,4.845,0,0,0,.314.387H45.673a4.85,4.85,0,0,0-4.825,4.874,4.921,4.921,0,0,0,1.239,3.277H40.044a4.849,4.849,0,0,0-4.826,4.873,4.919,4.919,0,0,0,1.256,3.3A4.882,4.882,0,0,0,34.1,33.351l5.184,15.013a.8.8,0,0,0,.759.546H65.778a.8.8,0,0,0,.759-.546l5.184-15.013a4.883,4.883,0,0,0-2.373-8.878ZM47.459,3.791a3.151,3.151,0,0,1,2.28-2.061.345.345,0,0,0,.008.049,2.891,2.891,0,0,0,2.866,2.3h1.1a4.853,4.853,0,0,1,4.758,4.076H50.5a3.218,3.218,0,0,1-2.6-1.345A3.368,3.368,0,0,1,47.459,3.791ZM45.673,9.783H60.149a3.261,3.261,0,0,1,0,6.521H45.673a3.261,3.261,0,0,1,0-6.521Zm-5.629,8.152H65.778a3.261,3.261,0,0,1,0,6.521H40.044a3.261,3.261,0,0,1,0-6.521Zm.571,29.346L35.328,31.969a2.666,2.666,0,0,1,1.689-.77,2.7,2.7,0,0,1,2.091.79l.187.189,2.228,15.1Zm2.535,0L40.9,32.077l.464-.47a2.661,2.661,0,0,1,3.794,0l.533.539.746,15.134Zm8.957,0h-4.06L47.3,32.112l.5-.505a2.661,2.661,0,0,1,3.794,0l.515.523Zm5.668,0h-4.06V32.129l.515-.523a2.661,2.661,0,0,1,3.794,0l.5.505Zm1.612,0,.746-15.134.532-.539a2.661,2.661,0,0,1,3.794,0l.464.47-2.25,15.2Zm5.821,0H64.3l2.235-15.1.187-.189a2.656,2.656,0,0,1,3.773-.02Zm6.572-16.309-.01-.009a4.333,4.333,0,0,0-.541-.495c-.031-.024-.06-.048-.091-.071a4.276,4.276,0,0,0-.6-.368c-.038-.02-.076-.038-.115-.056a4.206,4.206,0,0,0-.662-.245c-.032-.01-.065-.015-.1-.024a4.245,4.245,0,0,0-.741-.126c-.1-.007-.2-.011-.3-.011s-.194.02-.291.026c-.127.009-.253.015-.379.035a4.243,4.243,0,0,0-.414.1c-.123.033-.246.06-.366.1a4.207,4.207,0,0,0-.44.2,3.154,3.154,0,0,0-.284.139,4.289,4.289,0,0,0-.659.48l-.189-.192a4.256,4.256,0,0,0-6.068,0l-.183.181-.183-.185a4.256,4.256,0,0,0-6.068,0l-.183.185-.183-.185a4.256,4.256,0,0,0-6.068,0l-.183.185-.183-.185a4.256,4.256,0,0,0-6.068,0l-.189.192a4.184,4.184,0,0,0-3.879-.946c-.033.008-.066.014-.1.024a4.206,4.206,0,0,0-.662.245c-.039.019-.08.037-.115.056a4.276,4.276,0,0,0-.6.368c-.031.023-.06.047-.091.071a4.34,4.34,0,0,0-.541.495l-.01.009a3.259,3.259,0,0,1,2.784-4.881H68.995a3.262,3.262,0,0,1,2.784,4.885Z" transform="translate(-32.002 0)" fill="#fff"/>
      </g>
    </g>
  </g>
</svg>
