<svg xmlns="http://www.w3.org/2000/svg" width="54.792" height="53.349" viewBox="0 0 54.792 53.349">
  <g id="house-black-silhouette-without-door" transform="translate(1.5 1.71)">
    <path id="Path_35" data-name="Path 35" d="M51.142,29.353a2.469,2.469,0,0,0-.2-3.534L27.793,5.567a2.885,2.885,0,0,0-3.763.043L.805,26.9a2.455,2.455,0,0,0-.112,3.529l.582.606a2.539,2.539,0,0,0,3.485.267L6.5,29.747V52.5A2.526,2.526,0,0,0,9.023,55.03h9.053A2.526,2.526,0,0,0,20.6,52.5V36.583H32.15V52.5a2.387,2.387,0,0,0,2.373,2.525h9.594A2.526,2.526,0,0,0,46.644,52.5V30.067l1.071.94c.59.519,1.83.1,2.769-.931Z" transform="translate(0 -4.89)" fill="none" stroke="#fff" stroke-width="3"/>
  </g>
</svg>
