<svg xmlns="http://www.w3.org/2000/svg" width="50.726" height="50.726" viewBox="0 0 50.726 50.726">
  <g id="rice-chicken-food-fried" transform="translate(0)">
    <path id="Path_4" data-name="Path 4" d="M43.172,39H42a2.934,2.934,0,0,0,2.931,2.931V40.758A1.758,1.758,0,0,1,43.172,39Z" transform="translate(-7.24 -6.847)" fill="#fff"/>
    <path id="Path_5" data-name="Path 5" d="M13.78,39.609l.829-.829-1.244-1.244,1.244-1.244-.829-.829-1.244,1.244-1.244-1.244-.829.829,1.244,1.244L10.464,38.78l.829.829,1.244-1.244Z" transform="translate(-5.503 -6.013)" fill="#fff"/>
    <rect id="Rectangle_4" data-name="Rectangle 4" width="1.172" height="0.586" transform="translate(10.097 27.921)" fill="#fff"/>
    <rect id="Rectangle_5" data-name="Rectangle 5" width="1.172" height="0.586" transform="translate(10.097 22.88)" fill="#fff"/>
    <rect id="Rectangle_6" data-name="Rectangle 6" width="1.172" height="0.586" transform="translate(10.097 17.839)" fill="#fff"/>
    <path id="Path_6" data-name="Path 6" d="M25.879,18.98l-.829-.829a1.172,1.172,0,0,0,0,1.658Z" transform="translate(-5.307 -4.289)" fill="#fff"/>
    <rect id="Rectangle_7" data-name="Rectangle 7" width="1.172" height="1.172" transform="translate(25.705 13.832) rotate(-45)" fill="#fff"/>
    <rect id="Rectangle_8" data-name="Rectangle 8" width="1.172" height="1.172" transform="translate(28.886 16.511) rotate(-45)" fill="#fff"/>
    <path id="Path_7" data-name="Path 7" d="M37.023,27.15a1.758,1.758,0,1,0-2.486,2.487l.829-.829a.586.586,0,1,1,.829,0l.829.829A1.758,1.758,0,0,0,37.023,27.15Z" transform="translate(-6.027 -5.212)" fill="#fff"/>
    <path id="Path_8" data-name="Path 8" d="M25.536,30.123a1.172,1.172,0,0,0,1.657,0l-.828-.829.828-.829a1.172,1.172,0,1,0-1.657,1.658Z" transform="translate(-5.222 -5.554)" fill="#fff"/>
    <rect id="Rectangle_9" data-name="Rectangle 9" width="1.172" height="1.172" transform="translate(15.64 36.894) rotate(-45)" fill="#fff"/>
    <rect id="Rectangle_10" data-name="Rectangle 10" width="1.172" height="1.172" transform="translate(18.067 36.895) rotate(-45)" fill="#fff"/>
    <path id="Path_9" data-name="Path 9" d="M29.295,39.9a.586.586,0,1,1-.829,0l-.829-.829a1.758,1.758,0,1,0,2.487,0Z" transform="translate(-5.159 -6.833)" fill="#fff"/>
    <path id="Path_10" data-name="Path 10" d="M51.279,27.706a4.644,4.644,0,0,0-2.922-4.346,3.78,3.78,0,0,0,.211-1.245,3.709,3.709,0,0,0-2.706-3.593V17.455a2.8,2.8,0,0,0,0-5.591,2.646,2.646,0,0,0-2.02.932H42.455a2.644,2.644,0,0,0-3.976-.063,3.634,3.634,0,0,0-2.8-2.669,3.537,3.537,0,0,0-3.55,1.446,2.634,2.634,0,0,0-1.629-.577A2.731,2.731,0,0,0,27.874,13a17.6,17.6,0,0,0-3.574.927,4.449,4.449,0,0,0-5.064-1.851,4.691,4.691,0,0,0-3.086,5.472,3.565,3.565,0,0,0-2.35,1.8c-.155-.012-.314-.025-.474-.025A6.434,6.434,0,0,0,7,25.842a6.608,6.608,0,0,0,.623,2.787,6.588,6.588,0,0,0,0,5.591,6.685,6.685,0,0,0,.35,6.29,6.268,6.268,0,0,0,5.353,3.037c.114,0,.225-.011.337-.018a3.453,3.453,0,0,0,2.464.95,4.563,4.563,0,0,0,4.428,3.727,4.226,4.226,0,0,0,1.524-.289A17.609,17.609,0,0,0,26,49.48a2.773,2.773,0,0,0,1.917,2.338,2.661,2.661,0,0,0,2.845-.876,3.518,3.518,0,0,0,5.189-.317A4.348,4.348,0,0,0,37.724,51a4.558,4.558,0,0,0,4.433-3.8,7.927,7.927,0,0,0,6.391-2.025,8.459,8.459,0,0,0,2.73-6.294,22.021,22.021,0,0,0-1.784-7.49,4.658,4.658,0,0,0,1.784-3.692ZM46.76,22.114a1.868,1.868,0,0,1-.483,1.25.954.954,0,0,0-.174.984.906.906,0,0,0,.79.58,2.7,2.7,0,0,1,2.394,1.767,2.84,2.84,0,0,1-.6,2.971,11.677,11.677,0,0,0-2.835-3.7l.008-5.454A1.867,1.867,0,0,1,46.76,22.114Zm-6.326-8.387a.9.9,0,0,1,.783.466.9.9,0,0,0,.781.466h2.3a.9.9,0,0,0,.781-.466.891.891,0,0,1,1.092-.41.936.936,0,0,1,.581,1.038.912.912,0,0,1-.89.77.841.841,0,0,1-.438-.115.88.88,0,0,0-.905,0,.937.937,0,0,0-.455.807l-.015,8.744a3.62,3.62,0,0,0-1.807,0l.015-8.753a.938.938,0,0,0-.448-.807.88.88,0,0,0-.9-.006.9.9,0,0,1-.9-.006.959.959,0,0,1-.47-.792A.918.918,0,0,1,40.435,13.727ZM13.326,21.182a4.435,4.435,0,0,1,3.509,1.7,4.736,4.736,0,0,1,.911,3.888,6.17,6.17,0,0,0-8.839,0,4.736,4.736,0,0,1,.911-3.888,4.435,4.435,0,0,1,3.509-1.7ZM8.906,32.365A4.727,4.727,0,0,1,10.8,27.534a4.405,4.405,0,0,1,5.053,0,4.727,4.727,0,0,1,1.893,4.831,6.17,6.17,0,0,0-8.839,0Zm-.1,4.659a4.59,4.59,0,0,1,4.518-4.659,4.662,4.662,0,0,1,0,9.319A4.6,4.6,0,0,1,8.807,37.024ZM37.724,49.139a2.61,2.61,0,0,1-1.547-.509.881.881,0,0,0-.752-.141.911.911,0,0,0-.588.5,1.774,1.774,0,0,1-3.326-.171.906.906,0,0,0-.853-.624,1,1,0,0,0-.163.009.918.918,0,0,0-.9.932.9.9,0,1,1-1.807,0,1,1,0,0,1,.025-.2.932.932,0,0,0-.7-1.105,15.816,15.816,0,0,1-4.544-1.765.88.88,0,0,0-.839-.024,2.629,2.629,0,0,1-2.593-.125A2.8,2.8,0,0,1,17.844,43.6c.006-.047.019-.186.019-.23a.944.944,0,0,0-.313-.7.885.885,0,0,0-.719-.217,6.612,6.612,0,0,0,2.2-8.23,6.588,6.588,0,0,0,0-5.591,6.608,6.608,0,0,0,.622-2.787,6.536,6.536,0,0,0-3.916-6.028,1.751,1.751,0,0,1,1.2-.495,1.618,1.618,0,0,1,.347.036.891.891,0,0,0,.922-.376.956.956,0,0,0,.033-1.022,2.8,2.8,0,0,1,1.78-4.171,2.694,2.694,0,0,1,3.033,1.661.894.894,0,0,0,1.175.5,15.817,15.817,0,0,1,4.553-1.192.922.922,0,0,0,.813-.932c0-.073-.008-.116-.009-.1a.9.9,0,1,1,1.807,0,.9.9,0,1,0,1.807,0,1.861,1.861,0,0,1,1.2-1.761,1.774,1.774,0,0,1,2.011.588,1.911,1.911,0,0,1,.129,2.151.951.951,0,0,0,.233,1.215.884.884,0,0,0,1.2-.1,2.708,2.708,0,0,0,2.459,1.636h.006l-.014,8.523c-3.335,2.674-5.414,9.684-5.414,12.91a8.383,8.383,0,0,0,5.38,7.882A2.738,2.738,0,0,1,37.724,49.139Zm5.422-3.727a6.434,6.434,0,0,1-6.326-6.523c0-4.236,3.253-12.114,6.326-12.114s6.326,7.878,6.326,12.114A6.434,6.434,0,0,1,43.146,45.411Z" transform="translate(-4.069 -5.311)" fill="#fff"/>
    <path id="Path_11" data-name="Path 11" d="M27.363,2A25.363,25.363,0,1,0,52.726,27.363,25.363,25.363,0,0,0,27.363,2Zm0,49.035A23.672,23.672,0,1,1,51.035,27.363,23.672,23.672,0,0,1,27.363,51.035Z" transform="translate(-2 -2)" fill="#fff"/>
  </g>
</svg>
