<svg xmlns="http://www.w3.org/2000/svg" width="55.956" height="41.581" viewBox="0 0 55.956 41.581">
  <g id="salad" transform="translate(0)">
    <path id="Path_17" data-name="Path 17" d="M52.966,90.141H52.52a5.478,5.478,0,0,0,1.875-1.9,3.77,3.77,0,0,0-1.274-4.893,8,8,0,0,0-13.092-8.6l-3.787-5.428a.82.82,0,0,0-1.207-.152,10.234,10.234,0,0,0-2.465,3.168,5.36,5.36,0,0,0-2.252.835,13.932,13.932,0,0,0-1.268-4.724.82.82,0,0,0-1.455.756,14.65,14.65,0,0,1,1.185,5.561.82.82,0,0,0,1.4.574A6.241,6.241,0,0,1,31.854,74.2a10.223,10.223,0,0,0,.533,6.964L25.032,84.46c-1.672-2.895-3.406-4.261-5.16-4.065a3.58,3.58,0,0,0-1.216.342c-1.32-2.1-1.836-3.744-1.381-4.433.171-.258.692-1.045,2.264-.69a6.269,6.269,0,0,1,1.73.71.82.82,0,0,0,1.242-.866,16.11,16.11,0,0,1-.3-2.381c0-.023,0-.047,0-.07a7.775,7.775,0,0,1,.856-4.6,2.336,2.336,0,0,1,1.736-.988,2.784,2.784,0,0,1,.659,0,.82.82,0,0,0,.209-1.626,4.419,4.419,0,0,0-1.048-.005,3.943,3.943,0,0,0-2.887,1.661,7.361,7.361,0,0,0-1.162,3.91A8,8,0,0,0,9.531,82.442a5.3,5.3,0,0,0,.016,1.329c-1.595-.458-4.139-.941-5.945-.077A3.559,3.559,0,0,0,1.667,86a3.775,3.775,0,0,0,1.409,4.146H2.99A2.993,2.993,0,0,0,0,93.131v.176A2.993,2.993,0,0,0,2.99,96.3H5.7l6.573,6.406a2.791,2.791,0,0,0-.769,1.925v.023a2.719,2.719,0,0,0,2.8,2.692H41.65a2.719,2.719,0,0,0,2.8-2.692v-.023a2.791,2.791,0,0,0-.769-1.925L50.255,96.3h2.711a2.993,2.993,0,0,0,2.99-2.99v-.176a2.993,2.993,0,0,0-2.99-2.99Zm-.01-2.683c-.55,1.008-2.115,1.953-4.293,2.591a.816.816,0,0,0-.2.091H33.223a10.191,10.191,0,0,0,1.46-7.989,2.157,2.157,0,0,1,1.6-.686c.8.091.973.408,1.029.513.346.654-.128,1.981-.412,2.52a.82.82,0,0,0,1.364.9,17.759,17.759,0,0,1,4.845-4.363.817.817,0,0,0,.179-.08,1.365,1.365,0,0,1,1.026-.113c.406.175.939.547.887,1.749a5.4,5.4,0,0,1-.339,1.576.82.82,0,0,0,1.071,1.07c1.1-.455,4.346-1.454,6.1-.617a2.118,2.118,0,0,1,.93,2.843Zm-25.106,2.1-.733-1.638a.82.82,0,1,0-1.5.67l.7,1.556H23.735l.3-.788a.82.82,0,0,0-1.532-.585l-.524,1.372H18.167c-.013-.018-.337-.412-.475-.6l15.419-6.9a8.713,8.713,0,0,1-1.8,7.334.818.818,0,0,0-.107.167H27.88a.815.815,0,0,0-.03-.588ZM42.873,78.827a3.224,3.224,0,1,1,4.834,4.09.828.828,0,0,0-.084.08c-.3.069-.579.143-.835.217.189-1.435-.094-3.133-1.828-3.881a2.631,2.631,0,0,0-1.782-.069Zm2.809-4.779a6.367,6.367,0,0,1,6.36,6.36,6.291,6.291,0,0,1-.456,2.364,7.286,7.286,0,0,0-1.6-.108,4.865,4.865,0,0,0-8.123-5.277l-.883-1.266A6.346,6.346,0,0,1,45.682,74.047Zm-10.236-3,6.219,8.914a13.877,13.877,0,0,0-1.977,1.535c-.225.2-.442.412-.65.616a2.679,2.679,0,0,0-.279-.9,2.74,2.74,0,0,0-2.3-1.378,3.486,3.486,0,0,0-2.514.8,8.635,8.635,0,0,1,1.5-9.591ZM17.49,81.956a2.761,2.761,0,0,0-.194.713c-.207-.2-.425-.411-.65-.616a10.588,10.588,0,0,0-3.022-2.074c-.008-.014-.016-.027-.025-.041a3.225,3.225,0,0,1,2.646-5.068c.028,0,.055,0,.083,0a3.654,3.654,0,0,0-.421.526c-.912,1.38-.394,3.525,1.583,6.556ZM9.885,78.1a6.36,6.36,0,0,1,10.706-4.643c.02.275.045.537.072.777a5.742,5.742,0,0,0-1.975-.34,4.865,4.865,0,0,0-7,5.894,2.294,2.294,0,0,0-.308.107,3.085,3.085,0,0,0-.994.669,6.345,6.345,0,0,1-.5-2.465ZM6.17,90.08c-2.363-.987-3.349-2.206-2.931-3.621a1.956,1.956,0,0,1,1.068-1.285c1.743-.835,4.993.162,6.1.617a.82.82,0,0,0,1.071-1.068,5.4,5.4,0,0,1-.339-1.578c-.052-1.2.481-1.574.887-1.749,1.169-.5,4.264,2.323,6.05,4.557a.82.82,0,0,0,1.365-.894c-.284-.54-.759-1.868-.412-2.521.055-.1.224-.422,1.029-.513.985-.112,2.233,1.014,3.472,3.109l-7.378,3.3a.82.82,0,0,0-.375,1.158c.108.187.223.368.343.548H6.286a.8.8,0,0,0-.116-.061Zm36.642,14.571A1.079,1.079,0,0,1,41.65,105.7H14.306a1.079,1.079,0,0,1-1.162-1.053v-.023a1.164,1.164,0,0,1,1.162-1.162H41.65a1.164,1.164,0,0,1,1.162,1.162Zm11.5-11.345a1.352,1.352,0,0,1-1.35,1.35H15.681a.82.82,0,1,0,0,1.639H47.906l-5.674,5.53H13.723L8.049,96.3H12.4a.82.82,0,1,0,0-1.639H2.99a1.352,1.352,0,0,1-1.35-1.35v-.176a1.352,1.352,0,0,1,1.35-1.35H52.966a1.352,1.352,0,0,1,1.35,1.35Z" transform="translate(0 -65.762)" fill="#fff"/>
  </g>
</svg>
