<svg xmlns="http://www.w3.org/2000/svg" width="32.711" height="48.712" viewBox="0 0 32.711 48.712">
  <path id="soda" d="M119.25,11.512H108.832V4.171l9.149-1.333a1.437,1.437,0,0,0,1.247-1.625,1.479,1.479,0,0,0-1.693-1.2L107.122,1.533a1.447,1.447,0,0,0-1.264,1.411v8.567h-10.4A4.379,4.379,0,0,0,91,15.793v2.854a1.458,1.458,0,0,0,1.487,1.427H94.1l2.84,27.352a1.465,1.465,0,0,0,1.48,1.286h17.852a1.465,1.465,0,0,0,1.48-1.286l2.831-27.351h1.637a1.458,1.458,0,0,0,1.487-1.427V15.793a4.379,4.379,0,0,0-4.461-4.281Zm-3.276,24.261H98.723l-.593-5.713h18.435ZM99.77,45.857l-.751-7.231h16.659l-.748,7.231ZM116.86,27.2H97.833l-.74-7.131H117.6Zm3.877-9.985H93.974V15.793a1.46,1.46,0,0,1,1.487-1.427h23.79a1.459,1.459,0,0,1,1.487,1.427Z" transform="translate(-91 0.001)" fill="#fff"/>
</svg>
