<svg xmlns="http://www.w3.org/2000/svg" width="50.726" height="51.7" viewBox="0 0 50.726 51.7">
  <g id="spaguetti-2" transform="translate(0)">
    <path id="Path_27" data-name="Path 27" d="M22.71,33.693a2.211,2.211,0,0,0,1.585-.687,2.211,2.211,0,0,0,1.585.687,2.454,2.454,0,0,0,2.328-2.558V30.068h1.6a2.339,2.339,0,0,0,1.771-.843l4.487-5.256a.239.239,0,0,1,.181-.086H49.389a1.41,1.41,0,0,0,1.338-1.469V19.947a1.41,1.41,0,0,0-1.338-1.469H36.15a2.588,2.588,0,0,0-1.876.822l-5.148,5.369c-.231.241-.44.29-.918.292v-.643a2.454,2.454,0,0,0-2.328-2.558,2.211,2.211,0,0,0-1.585.687,2.173,2.173,0,0,0-3.17,0,2.173,2.173,0,0,0-3.17,0,2.211,2.211,0,0,0-1.585-.687,2.454,2.454,0,0,0-2.328,2.558V37.286a4.431,4.431,0,0,0-.467,3.017A18.238,18.238,0,0,0,10.5,43.611a.872.872,0,0,0,.12,1.147.7.7,0,0,0,1.044-.132A16.722,16.722,0,0,1,14.2,41.839a3.628,3.628,0,0,0,3.029,1.7,3.945,3.945,0,0,0,3.739-4.114,4.407,4.407,0,0,0-.116-1,18.822,18.822,0,0,1,4.735-.351,15.429,15.429,0,0,1,11.082,4.965,18,18,0,0,1,4.6,10.668,1.566,1.566,0,0,1-.718,1.489l-.023.014a1.424,1.424,0,0,1-1.863-.5l-.013-.017a2.365,2.365,0,0,1-.482-1.331l-.04-.986A2.087,2.087,0,0,0,34,51.8c-.152.551-.023.7-.2,1.123-.005.011-.012.021-.017.032a1.234,1.234,0,0,1-1,.76,1.216,1.216,0,0,1-1.146-.579,1.458,1.458,0,0,1-.228-.789V50.162a3.532,3.532,0,0,0-.97-2.545,3.15,3.15,0,0,0-.365-.324,4.286,4.286,0,0,0,1.208-3.019,3.938,3.938,0,0,0-3.737-4.1,3.938,3.938,0,0,0-3.737,4.1,4.159,4.159,0,0,0,2.117,3.7,3.668,3.668,0,0,0-.683,1.954c0,.01,0,.02,0,.03-.006.134,0-.027,0,2.558a7.035,7.035,0,0,1-.073,2.018l0,.006a1.27,1.27,0,0,1-1.225.912,1.368,1.368,0,0,1-1.208-1.429V48.429a1.874,1.874,0,0,0-1.778-1.953h-6.2a2.289,2.289,0,0,0-2.185,1.908l-.313,1.485a1.331,1.331,0,0,1-1.207,1.123c-.475.023-.86.009-1.141-.383a1.1,1.1,0,0,1-.21-.653v-.042a7.917,7.917,0,0,1,.337-2.283A.836.836,0,0,0,9.563,46.6a.731.731,0,0,0-.939.519,9.69,9.69,0,0,0-.412,2.795v.042a2.922,2.922,0,0,0,.082.689,12.852,12.852,0,0,0-5.986,8.074,2.756,2.756,0,0,0-.133,5.414L2.5,66.98a3.449,3.449,0,0,0,3.294,3.2H38.44a.82.82,0,0,0,0-1.632H5.79A1.9,1.9,0,0,1,3.971,66.78l-.3-2.626H47.029l-.3,2.626a1.9,1.9,0,0,1-1.819,1.766H41.908a.82.82,0,0,0,0,1.632h3.006a3.449,3.449,0,0,0,3.294-3.2l.32-2.844a2.761,2.761,0,0,0-.015-5.408,17.066,17.066,0,0,0-2.409-6.06,15.493,15.493,0,0,0-4.625-4.631A19.163,19.163,0,0,0,37.968,42.2a4.4,4.4,0,0,0,.411-1.873,3.938,3.938,0,0,0-3.737-4.1A3.622,3.622,0,0,0,31.778,37.7a15.873,15.873,0,0,0-6.195-1.262,26.364,26.364,0,0,0-3.716.144V33.52a2.135,2.135,0,0,0,.842.174ZM20.879,48.108h.075a.307.307,0,0,1,.292.32v2.907A11.456,11.456,0,0,0,18.95,50.05a6.882,6.882,0,0,1,1.929-1.942Zm10.574,10.6a2.206,2.206,0,0,1,1.8-.981,2.306,2.306,0,0,1,2.16.981ZM25.8,57.542c-.038-.109-.187-.521-.353-.9l-.007-.017A3.051,3.051,0,0,0,26.7,54.47v-.008s0-.007,0-.011a14.022,14.022,0,0,0,.022-1.531,9.96,9.96,0,0,1,3.2-1.723,7.461,7.461,0,0,0,.089,1.915A8.272,8.272,0,0,0,25.8,57.542ZM27.259,48.8c.351-.176.71-.337,1.071-.478a1.629,1.629,0,0,1,1.512,1.2,11.235,11.235,0,0,0-3.117,1.435v-.823A1.921,1.921,0,0,1,27.259,48.8Zm14.2,9.908a9.172,9.172,0,0,0-.716-1.845,2.962,2.962,0,0,0,1.644-1.454l.009-.019a11.691,11.691,0,0,1,1.52,3.318ZM35.4,52.453a.645.645,0,0,1,.7-.657.66.66,0,0,1,.54.646l.024.593a7.388,7.388,0,0,0-1.276-.4c0-.06.009-.12.01-.181Zm-2.72,2.9a2.632,2.632,0,0,0,2.166-1.171,6.061,6.061,0,0,1,2.243.87,3.566,3.566,0,0,0,1.854,1.783,7.325,7.325,0,0,1,.951,1.873H37.1A3.791,3.791,0,0,0,33.612,56.1h-.364a3.791,3.791,0,0,0-3.487,2.613H26.968a6.755,6.755,0,0,1,3.816-4.177,2.621,2.621,0,0,0,1.879.821h.014ZM27.548,41.8A2.483,2.483,0,1,1,25.3,44.274,2.372,2.372,0,0,1,27.548,41.8ZM14.755,48.108H18.5a8.834,8.834,0,0,0-1.041,1.443,10.8,10.8,0,0,0-2.7-.345h-.839l.1-.454a.772.772,0,0,1,.737-.644ZM9.1,52.027a2.893,2.893,0,0,0,2.9.39l0,0a2.9,2.9,0,0,0,1.513-1.574c.125,0,.09,0,1.243,0a9.773,9.773,0,0,1,6.484,2.514,4.227,4.227,0,0,0,.319,2.09,2.732,2.732,0,0,0,2.428,1.641,11.848,11.848,0,0,1,.609,1.629H23.023a8.928,8.928,0,0,0-8.263-6.241H13.7A8.265,8.265,0,0,0,8.416,54.4,9.8,9.8,0,0,0,5.44,58.712H3.861A11.168,11.168,0,0,1,9.1,52.027Zm9.778,6.685a4.779,4.779,0,0,0-4.38-3.12h-.529a4.779,4.779,0,0,0-4.38,3.12H7.054A7.314,7.314,0,0,1,13.7,54.1h1.059a7.314,7.314,0,0,1,6.649,4.609Zm-1.708,0H11.295a3.213,3.213,0,0,1,2.672-1.487H14.5A3.213,3.213,0,0,1,17.168,58.712ZM49.24,61.433a1.044,1.044,0,0,1-.991,1.088H2.477a1.093,1.093,0,0,1,0-2.177H48.249A1.044,1.044,0,0,1,49.24,61.433Zm-2.249-2.721H45.457a13.3,13.3,0,0,0-2.741-5.445,20.874,20.874,0,0,0-.451-2.685A14.642,14.642,0,0,1,46.991,58.712ZM33.237,38.4c1.693-1.488,4.169.277,3.573,2.6a17.417,17.417,0,0,0-3.573-2.6ZM30.149,25.853,35.3,20.484a1.176,1.176,0,0,1,.852-.374H49.24v2.14H36.25a1.671,1.671,0,0,0-1.265.6L30.5,28.109c-.359.421-.652.327-2.29.327V26.594A2.42,2.42,0,0,0,30.149,25.853ZM25.88,23.394a.888.888,0,0,1,.842.925v6.817a.846.846,0,1,1-1.684,0V24.319a.888.888,0,0,1,.842-.925Zm-3.17,0a.888.888,0,0,1,.842.925v6.817a.846.846,0,1,1-1.684,0V24.319a.888.888,0,0,1,.842-.925ZM19.476,39.431A2.4,2.4,0,0,1,17.343,41.9a2.356,2.356,0,0,1-2.368-2.469,2.4,2.4,0,0,1,2.019-2.459h0A2.346,2.346,0,0,1,19.476,39.431ZM15.527,24.319a.846.846,0,1,1,1.684,0V35.325a3.438,3.438,0,0,0-1.684.446Zm4.646,12.59a3.857,3.857,0,0,0-1.439-1.232l-.036-.018V24.319a.846.846,0,1,1,1.684,0V36.857Z" transform="translate(0 -18.478)" fill="#fff"/>
  </g>
</svg>
