<svg xmlns="http://www.w3.org/2000/svg" width="51.115" height="39.132" viewBox="0 0 51.115 39.132">
  <g id="steak_icon" data-name="steak icon" transform="translate(0)">
    <g id="meat" transform="translate(0 0)">
      <g id="Group_54" data-name="Group 54" transform="translate(0 0)">
        <g id="Group_53" data-name="Group 53">
          <path id="Path_30" data-name="Path 30" d="M46.769,62.858a27.588,27.588,0,0,0-9.778-4.43,85.581,85.581,0,0,0-20.518-2.384A16.33,16.33,0,0,0,0,72.189v6.841A16.33,16.33,0,0,0,16.473,95.175c4.188,0,7.334-1.286,10.664-2.647,3.444-1.408,7-2.864,12.013-2.864A11.862,11.862,0,0,0,51.115,77.936V71.1A10.191,10.191,0,0,0,46.769,62.858Zm-.841,16.728a1.013,1.013,0,0,0,1.411.042,11.815,11.815,0,0,0,1.779-2.071v.379a9.882,9.882,0,0,1-9.969,9.771c-5.408,0-9.157,1.533-12.782,3.015-3.14,1.284-6.107,2.5-9.9,2.5A14.375,14.375,0,0,1,2.027,79.942a16.538,16.538,0,0,0,14.445,8.392c4.188,0,7.334-1.286,10.664-2.647,3.444-1.408,7-2.864,12.013-2.864.372,0,.748-.017,1.117-.051a.979.979,0,1,0-.186-1.948c-.308.028-.621.043-.931.043-5.408,0-9.157,1.533-12.782,3.015-3.14,1.284-6.107,2.5-9.9,2.5a14.191,14.191,0,1,1,0-28.377,83.482,83.482,0,0,1,19.989,2.315c8.4,2.26,12.656,5.888,12.656,10.781A9.716,9.716,0,0,1,45.971,78.2.965.965,0,0,0,45.928,79.586Z" transform="translate(0 -56.043)" fill="#fcf4f4"/>
        </g>
      </g>
      <g id="Group_60" data-name="Group 60" transform="translate(8.976 6.576)">
        <g id="Group_59" data-name="Group 59">
          <path id="Path_33" data-name="Path 33" d="M69.427,102.419c-.686-1.439-2.211-2.682-4.534-3.7A28.263,28.263,0,0,0,59.564,97.1c-.835-.174-1.71-.329-2.6-.461a.7.7,0,0,0-.78.625.728.728,0,0,0,.589.828c.866.129,1.716.279,2.527.448,4.748.989,7.99,2.646,8.9,4.546a2.99,2.99,0,0,1,.283,1.315,4.275,4.275,0,0,1-4.137,4.393,20.022,20.022,0,0,0-6.847,1.224c-.991.355-1.953.779-2.884,1.189-.616.271-1.252.552-1.884.806a10.563,10.563,0,0,1-4.086.915,7.72,7.72,0,0,1,0-15.413c.781,0,1.573.016,2.356.047l.4.017a.709.709,0,0,0,.721-.7.718.718,0,0,0-.66-.766l-.408-.018c-.8-.032-1.609-.048-2.407-.048a9.191,9.191,0,0,0,0,18.349,11.782,11.782,0,0,0,4.576-1.011c.652-.262,1.3-.547,1.924-.823.909-.4,1.849-.815,2.8-1.154a18.733,18.733,0,0,1,6.406-1.147,5.7,5.7,0,0,0,5.519-5.86A4.5,4.5,0,0,0,69.427,102.419Z" transform="translate(-39.998 -96.042)" fill="#fcf4f4"/>
        </g>
      </g>
      <g id="Group_62" data-name="Group 62" transform="translate(14.659 8.664)">
        <g id="Group_61" data-name="Group 61">
          <path id="Path_34" data-name="Path 34" d="M129.326,135.82a5.451,5.451,0,1,0,5.449,5.451A5.456,5.456,0,0,0,129.326,135.82Zm0,8.531a3.087,3.087,0,1,1,3.3-3.08A3.2,3.2,0,0,1,129.326,144.351Z" transform="translate(-123.877 -135.82)" fill="#fcf4f4"/>
        </g>
      </g>
    </g>
  </g>
</svg>
